# xmcd
#
# Track frame offsets:
#	150
#	20262
#	45926
#	68646
#	101738
#	121731
#	145221
#	174937
#	200972
#	231272
#	254652
#	286802
#	316694
#
# Disc length: 4435 seconds
#
# Revision: 0
# Processed by: cddbd v1.5.2PL0 Copyright (c) Steve Scherf et al.
# Submitted via: dBpowerAMP V4.0
#
DISCID=b011510d
DTITLE=Hussy Hicks - Postcards and Previews
DYEAR=2011
DGENRE=Country
TTITLE0=Sandcastles
TTITLE1=Armageddon (outta here)
TTITLE2=Drummer Boy
TTITLE3=Close your Eyes
TTITLE4=The Keeper
TTITLE5=People of Passion
TTITLE6=My Fault
TTITLE7=Round em up
TTITLE8=Dont Talk
TTITLE9=6 Bar
TTITLE10=Ghost Riders
TTITLE11=Placating
TTITLE12=Empty Room
EXTD=
EXTT0=
EXTT1=
EXTT2=
EXTT3=
EXTT4=
EXTT5=
EXTT6=
EXTT7=
EXTT8=
EXTT9=
EXTT10=
EXTT11=
EXTT12=
PLAYORDER=
